PathFileType	4	(X/Y/Z)	C:\Users\Basilio\Documents\Thesis Gigler\squatting_fais\c3dfiles\077\SLS_back_pre3\markers_experimental.trc
DataRate	CameraRate	NumFrames	NumMarkers	Units	OrigDataRate	OrigDataStartFrame	OrigNumFrames
200.000000	200.000000	4	60	mm	200.000000	409	1636
Frame#	Time	FHD			LBHD			RBHD			C7			T10			CLAV			LSHO			LUUPA			LMUPA			LDUPA			LLEP			LMEP			LRAD			LUL			LRFIN			RSHO			RUPA1			RMUPA			RDUPA			RLEP			RMEP			RRAD			RUL			RUFIN			LASI			RASI			USACR			LSACR			RSACR			LTHI1			LTHI2			LTHI3			LTHI4			LLFC			LMFC			LTIB1			LTIB2			LTIB3			LTIB4			LLMAL			LHEE			LMT1			LMT2			LMT5			RTHI			RTHI2			RTHI3			RTHI4			RLFC			RMFC			RTIB1			RTIB2			RTIB3			RTIB4			RLMAL			RMMAL			RHEE			RMT1			RMT2			RMT5			
		X1	Y1	Z1	X2	Y2	Z2	X3	Y3	Z3	X4	Y4	Z4	X5	Y5	Z5	X6	Y6	Z6	X7	Y7	Z7	X8	Y8	Z8	X9	Y9	Z9	X10	Y10	Z10	X11	Y11	Z11	X12	Y12	Z12	X13	Y13	Z13	X14	Y14	Z14	X15	Y15	Z15	X16	Y16	Z16	X17	Y17	Z17	X18	Y18	Z18	X19	Y19	Z19	X20	Y20	Z20	X21	Y21	Z21	X22	Y22	Z22	X23	Y23	Z23	X24	Y24	Z24	X25	Y25	Z25	X26	Y26	Z26	X27	Y27	Z27	X28	Y28	Z28	X29	Y29	Z29	X30	Y30	Z30	X31	Y31	Z31	X32	Y32	Z32	X33	Y33	Z33	X34	Y34	Z34	X35	Y35	Z35	X36	Y36	Z36	X37	Y37	Z37	X38	Y38	Z38	X39	Y39	Z39	X40	Y40	Z40	X41	Y41	Z41	X42	Y42	Z42	X43	Y43	Z43	X44	Y44	Z44	X45	Y45	Z45	X46	Y46	Z46	X47	Y47	Z47	X48	Y48	Z48	X49	Y49	Z49	X50	Y50	Z50	X51	Y51	Z51	X52	Y52	Z52	X53	Y53	Z53	X54	Y54	Z54	X55	Y55	Z55	X56	Y56	Z56	X57	Y57	Z57	X58	Y58	Z58	X59	Y59	Z59	X60	Y60	Z60	

410	2.045	-298.2919616699219	1864.2978515625	-1044.141723632813	-434.4138488769532	1743.904907226563	-1101.15966796875	-432.4107360839845	1746.3291015625	-954.7166137695315	-471.0106506347657	1595.87646484375	-1038.59326171875	-438.0465087890626	1260.53466796875	-1025.658325195313	-302.4370727539063	1566.433715820313	-1038.137817382813	-336.4703979492188	1602.622680664063	-1211.66552734375	-172.0006713867188	1556.140747070313	-1328.43310546875	-142.5053863525391	1590.611694335938	-1307.542724609375	-104.436752319336	1557.019287109375	-1342.023071289063	-41.37279891967774	1569.337768554688	-1344.861083984375	-29.99223327636719	1501.78271484375	-1316.601806640625	258.7628479003907	1614.896728515625	-1254.776245117188	257.0769348144532	1616.717041015625	-1334.939208984375	355.6350097656251	1639.020141601563	-1271.251098632813	-326.5540466308594	1595.872802734375	-870.605407714844	-169.6045227050782	1558.387817382813	-760.8728027343751	-142.9904022216797	1588.00830078125	-790.6805419921877	-99.87488555908206	1561.803344726563	-755.7551269531251	-34.49538040161134	1570.394653320313	-763.5429077148439	-27.45903396606446	1498.214233398438	-792.4327392578127	250.0434570312501	1598.569213867188	-856.5131835937502	260.1771240234376	1612.618408203125	-779.0293579101565	345.0680847167969	1625.54736328125	-859.0437011718752	-235.4994201660157	1063.688598632813	-1152.90380859375	-238.2779693603516	1113.040893554688	-871.097595214844	-440.5606689453126	1165.380981445313	-1016.151000976563	-442.5853271484376	1132.67919921875	-1042.498168945313	-446.4870910644532	1135.067504882813	-986.5458984375002	-294.5837097167969	846.8237915039065	-1183.817260742188	-264.8338928222657	769.473083496094	-1175.16259765625	-216.3421478271485	771.943054199219	-1169.036010742188	-294.3080444335938	717.8016357421876	-1159.039794921875	-262.7861633300782	572.0041503906251	-1126.86962890625	-264.6127319335938	556.6396484375001	-993.2943115234377	-253.5161743164063	351.2546691894532	-1043.275024414063	-277.8272094726563	303.3644104003907	-1115.437744140625	-252.3902282714844	301.4132080078126	-1076.428955078125	-271.2951660156251	225.7572937011719	-1043.789916992188	-337.5466003417969	111.2336730957032	-1090.261108398438	-397.9739990234376	80.1771926879883	-1041.890014648438	-188.356689453125	53.24702453613283	-1017.160034179688	-181.5844116210938	63.57627105712892	-1059.743774414063	-316.2330322265626	123.103515625	-1003.179565429688	-141.735580444336	837.537048339844	-767.3880004882814	-76.75147247314455	814.861511230469	-767.8204345703126	-50.73482131958009	832.8084716796877	-779.4714965820315	-59.87271881103517	732.4238281250001	-771.0797119140627	-51.14097976684572	687.5446777343751	-767.8338012695314	-36.02248001098634	654.9324951171876	-891.375183105469	-104.4520416259766	558.7217407226564	-780.7114868164065	-206.3526153564454	554.9306640625001	-747.2008056640626	-181.2784729003907	520.3778076171876	-766.5509033203126	-212.4654998779297	487.9663085937501	-807.9949340820315	-391.4788513183595	423.3674926757814	-760.8771362304689	-370.5514221191407	406.747039794922	-849.2188110351565	-465.0739135742189	442.1466674804689	-814.9932861328127	-321.1736755371094	268.5777282714844	-810.8460083007815	-321.5650024414063	272.2773437500001	-771.6216430664065	-348.3213806152344	271.7618408203126	-724.3890991210939	
411	2.05	-298.1352844238282	1864.355590820313	-1044.614624023438	-434.5188598632814	1743.857543945313	-1101.663696289063	-432.469940185547	1746.242553710938	-955.0942382812502	-471.1111450195314	1595.837646484375	-1039.13134765625	-438.0377502441407	1260.364379882813	-1026.193725585938	-302.5636901855469	1566.298583984375	-1038.623291015625	-336.4380493164063	1602.63671875	-1212.144287109375	-172.1785888671875	1556.23681640625	-1329.078735351563	-142.6220092773438	1590.623779296875	-1307.997680664063	-104.767333984375	1557.241821289063	-1342.593505859375	-41.61249923706055	1569.527954101563	-1345.427124023438	-30.11180686950684	1501.767333984375	-1317.257568359375	258.8201904296876	1614.78076171875	-1255.664916992188	257.1675415039063	1616.603637695313	-1335.809936523438	356.5281372070313	1639.31689453125	-1272.2529296875	-326.6602172851563	1595.83935546875	-871.0466308593752	-169.6227264404297	1558.3193359375	-761.2520751953126	-142.9583282470703	1587.920532226563	-791.120056152344	-99.83718872070315	1561.79150390625	-756.2019653320314	-34.50245666503907	1570.338134765625	-764.1003417968751	-27.53664588928223	1498.16552734375	-793.0545654296877	250.0700836181641	1598.723266601563	-856.990417480469	260.1255187988282	1612.916137695313	-779.5142822265627	345.0635681152344	1625.975830078125	-859.4997558593752	-235.0726165771485	1063.667602539063	-1153.318359375	-238.3404235839844	1113.019165039063	-871.7139282226565	-440.4371643066407	1165.412719726563	-1016.671569824219	-442.4906005859376	1132.65771484375	-1043.020141601563	-446.5826110839845	1135.0068359375	-987.0705566406252	-294.2682800292969	846.8463134765627	-1184.3095703125	-264.4024047851563	769.589782714844	-1175.537475585938	-215.8643951416016	771.940612792969	-1169.188720703125	-293.0560607910157	717.4569091796876	-1159.15380859375	-262.4127502441407	571.8307495117189	-1127.040283203125	-264.4877014160157	556.6277465820314	-993.581726074219	-253.4840850830079	350.4710388183594	-1043.189331054688	-278.2605895996094	303.5064392089844	-1115.824340820313	-252.2562408447266	301.3754577636719	-1076.4755859375	-271.1890563964844	225.6677703857422	-1043.763305664063	-337.4184265136719	111.2685470581055	-1090.296875	-398.0026855468751	80.21042633056642	-1041.903442382813	-188.3754425048828	53.23760223388673	-1017.182800292969	-181.2791595458985	63.98361968994142	-1059.782470703125	-316.2701416015626	123.1395034790039	-1003.185302734375	-140.559555053711	837.9174804687502	-768.6326293945315	-75.34761047363283	815.6418457031252	-769.3187255859377	-49.36668395996095	833.7686767578127	-781.005310058594	-58.19097900390626	733.7127685546876	-772.666687011719	-49.83364868164064	688.8099975585939	-769.5735473632815	-35.09834289550782	656.0710449218751	-893.5374755859377	-105.0967178344727	560.6864624023439	-783.0920410156252	-207.135482788086	558.6118164062501	-749.4341430664064	-182.3341827392578	523.0994262695314	-769.0926513671877	-214.4325408935547	492.1487731933595	-810.8318481445315	-394.0897216796876	430.1627197265626	-763.5507202148439	-373.3760070800782	413.3224182128907	-852.1135253906252	-467.3472595214845	450.0626831054689	-817.7712402343752	-326.1064147949219	274.5274047851563	-813.682800292969	-326.4090576171876	277.7431945800782	-774.4158325195315	-353.1072692871094	278.0770263671876	-727.2927246093751	
412	2.055	-298.0036010742188	1864.184326171875	-1045.042114257813	-434.5647277832032	1744.038940429688	-1102.18896484375	-432.6982421875001	1745.174194335938	-955.3135375976565	-471.0686950683595	1595.800659179688	-1039.620483398438	-437.9464416503907	1260.298461914063	-1026.70849609375	-302.6373596191407	1566.297607421875	-1039.187622070313	-336.5235290527344	1602.650390625	-1212.641479492188	-172.3436279296875	1556.442626953125	-1329.62060546875	-142.7902069091797	1590.64404296875	-1308.4580078125	-104.8402175903321	1557.14892578125	-1343.193359375	-41.58935928344727	1569.374145507813	-1345.986206054688	-30.19503021240235	1501.713012695313	-1317.925903320313	259.1709594726563	1614.853759765625	-1256.386962890625	257.2436523437501	1616.5185546875	-1336.676513671875	355.5838928222657	1638.648315429688	-1273.0888671875	-326.9090270996094	1595.889526367188	-871.591003417969	-169.7015533447266	1558.083251953125	-761.3306884765626	-143.052490234375	1587.975463867188	-791.5389404296877	-99.81497955322268	1561.813720703125	-756.8924560546876	-34.42399215698243	1570.584594726563	-764.9746093750001	-27.45081329345704	1498.203491210938	-793.6361083984377	250.1016235351563	1599.038818359375	-857.5507812500002	260.0734863281251	1613.331787109375	-779.8413085937502	344.9681701660157	1626.52685546875	-859.9649047851565	-234.9173431396485	1063.69970703125	-1153.674072265625	-238.2902984619141	1113.119384765625	-872.1523437500002	-440.3171386718751	1165.384033203125	-1017.261657714844	-442.3181762695314	1132.586791992188	-1043.586181640625	-446.4457092285157	1135.06103515625	-987.5958251953127	-293.8806152343751	846.839294433594	-1184.686645507813	-263.2443237304688	769.0718383789065	-1175.512329101563	-215.474105834961	771.9915771484377	-1169.352783203125	-292.6518554687501	717.3347167968751	-1159.497802734375	-261.9175415039063	571.7689208984376	-1127.129516601563	-264.2393798828126	556.6783447265626	-993.8427734375002	-254.6244201660157	350.1126403808594	-1044.16845703125	-278.1355895996094	303.4793701171876	-1115.904296875	-252.053207397461	301.4513244628907	-1076.4794921875	-271.2814025878907	225.8237915039063	-1043.752319335938	-337.3588562011719	111.2705535888672	-1090.32080078125	-397.971405029297	80.17787170410158	-1041.873413085938	-188.3643951416016	53.2445640563965	-1017.161437988281	-181.7365875244141	63.49435043334962	-1059.72607421875	-316.2791748046876	123.157211303711	-1003.169311523438	-139.3599243164063	838.6954345703127	-769.8912353515627	-74.09535217285158	816.278259277344	-770.8101806640627	-48.52518463134767	834.217712402344	-782.7808837890627	-56.70942306518556	734.3883666992189	-774.2683715820315	-48.58538055419923	689.7459716796876	-771.5346679687502	-34.0924415588379	657.2525634765626	-895.6054687500002	-105.6496047973633	562.9831542968751	-785.1123046875002	-207.9072265625001	562.3466186523439	-751.7703247070314	-183.5165252685547	526.3907470703126	-771.6477661132815	-215.6988983154297	495.9790344238282	-813.0795898437502	-396.6833496093751	436.852020263672	-766.2730102539064	-374.1408386230469	419.4375610351564	-854.2670898437502	-470.1875000000001	457.7978515625001	-820.8913574218752	-330.8204040527344	280.0781250000001	-816.4742431640627	-331.2120056152344	283.3905334472657	-777.3233642578127	-357.9849548339844	284.1701660156251	-730.2599487304689	
413	2.06	-299.2239379882813	1864.876098632813	-1046.16259765625	-434.6028747558595	1744.065307617188	-1102.597534179688	-432.6702880859376	1745.135131835938	-955.6968994140627	-471.0008239746095	1595.78125	-1040.084594726563	-437.7813720703126	1260.203125	-1027.329711914063	-302.7253112792969	1566.276733398438	-1039.71044921875	-336.4641723632813	1602.553344726563	-1213.144165039063	-172.8108825683594	1556.630859375	-1330.075561523438	-142.7472534179688	1590.667846679688	-1308.885498046875	-105.0802688598633	1557.207885742188	-1343.89697265625	-41.62070846557618	1569.41748046875	-1346.754760742188	-30.23585510253907	1501.94384765625	-1318.599853515625	258.7617797851563	1614.827026367188	-1257.376098632813	257.1687316894532	1616.472045898438	-1337.422241210938	356.5223999023438	1638.961303710938	-1274.12744140625	-326.8592224121094	1595.854248046875	-872.114440917969	-169.5816040039063	1558.220581054688	-761.8060913085939	-143.0519561767578	1587.901245117188	-791.9973754882815	-99.81232452392581	1561.81201171875	-757.3444824218751	-34.49518585205079	1570.585815429688	-765.6250000000001	-27.3721046447754	1498.294311523438	-794.164978027344	249.9009399414063	1603.985473632813	-860.0078735351565	260.1133117675782	1613.561157226563	-780.256286621094	345.1135559082032	1626.856689453125	-860.507995605469	-234.5198669433594	1063.8720703125	-1154.023193359375	-238.2721710205079	1113.257446289063	-872.6405029296877	-440.1458435058595	1165.325805664063	-1017.817077636719	-442.0428161621095	1132.51806640625	-1044.312622070313	-446.2280883789064	1135.05224609375	-988.179382324219	-293.4714050292969	846.787048339844	-1184.955810546875	-263.7775268554688	769.222106933594	-1176.040405273438	-214.8675384521485	771.8186035156252	-1169.398559570313	-292.1329650878907	717.2401123046876	-1159.908203125	-261.7566223144532	571.8424682617189	-1127.2724609375	-264.1014709472657	556.7084350585939	-994.0565185546877	-254.3051910400391	349.6858215332032	-1043.945068359375	-277.9864807128907	303.3583068847657	-1115.974731445313	-251.9870758056641	301.4314575195313	-1076.4921875	-271.0639038085938	225.7037200927735	-1043.719482421875	-337.4321899414063	111.2725677490235	-1090.296875	-397.9663085937501	80.16096496582033	-1041.9111328125	-188.3446502685547	53.2461624145508	-1017.157592773438	-181.2531433105469	63.9922218322754	-1059.77587890625	-316.3215026855469	123.2174987792969	-1003.16845703125	-138.2326812744141	839.1311035156252	-771.1643676757815	-72.88735961914064	817.2242431640627	-772.2802734375002	-47.28571701049805	835.2183227539065	-784.2987060546877	-55.45984649658205	735.1077270507814	-775.8103637695315	-47.51073837280274	690.7737426757814	-773.1544189453127	-33.48266601562501	658.3905639648439	-897.5311279296877	-106.3352508544922	564.8272094726564	-787.1411743164065	-208.3997039794922	565.8134765625001	-754.2167358398439	-184.8031768798828	530.3479614257814	-774.1611328125002	-217.7325592041016	499.8734130859376	-815.791687011719	-399.2323608398439	443.4364013671876	-769.0442504882815	-379.0149841308594	426.2629699707032	-857.6260986328127	-472.1090698242189	465.458709716797	-823.4700927734377	-335.8000793457032	285.8916931152344	-819.6501464843752	-335.8610534667969	289.3040466308594	-780.2107543945315	-362.7576904296876	290.3926086425782	-733.2980346679689	
